solid OpenSCAD_Model
  facet normal 0 0 -1
    outer loop
      vertex -69 0 0
      vertex -67.4922 14.3459 0
      vertex -67.4922 -14.3459 0
    endloop
  endfacet
  facet normal 0 0 -1
    outer loop
      vertex -67.4922 -14.3459 0
      vertex -67.4922 14.3459 0
      vertex -63.0346 28.0648 0
    endloop
  endfacet
  facet normal 0 0 -1
    outer loop
      vertex -67.4922 -14.3459 0
      vertex -63.0346 28.0648 0
      vertex -55.8222 40.5572 0
    endloop
  endfacet
  facet normal 0 0 -1
    outer loop
      vertex -67.4922 -14.3459 0
      vertex -55.8222 40.5572 0
      vertex -46.17 51.277 0
    endloop
  endfacet
  facet normal 0 0 -1
    outer loop
      vertex -67.4922 -14.3459 0
      vertex -46.17 51.277 0
      vertex -34.5 59.7558 0
    endloop
  endfacet
  facet normal 0 0 -1
    outer loop
      vertex -67.4922 -14.3459 0
      vertex -34.5 59.7558 0
      vertex -21.3222 65.6229 0
    endloop
  endfacet
  facet normal 0 0 -1
    outer loop
      vertex -67.4922 -14.3459 0
      vertex -21.3222 65.6229 0
      vertex -7.21246 68.622 0
    endloop
  endfacet
  facet normal 0 0 -1
    outer loop
      vertex -67.4922 -14.3459 0
      vertex -7.21246 68.622 0
      vertex 7.21246 68.622 0
    endloop
  endfacet
  facet normal 0 0 -1
    outer loop
      vertex -67.4922 -14.3459 0
      vertex 7.21246 68.622 0
      vertex 21.3222 65.6229 0
    endloop
  endfacet
  facet normal 0 0 -1
    outer loop
      vertex -67.4922 -14.3459 0
      vertex 21.3222 65.6229 0
      vertex 34.5 59.7558 0
    endloop
  endfacet
  facet normal 0 0 -1
    outer loop
      vertex -67.4922 -14.3459 0
      vertex 34.5 59.7558 0
      vertex 46.17 51.277 0
    endloop
  endfacet
  facet normal 0 0 -1
    outer loop
      vertex -67.4922 -14.3459 0
      vertex 46.17 51.277 0
      vertex 55.8222 40.5572 0
    endloop
  endfacet
  facet normal 0 0 -1
    outer loop
      vertex -67.4922 -14.3459 0
      vertex 55.8222 40.5572 0
      vertex 63.0346 28.0648 0
    endloop
  endfacet
  facet normal 0 0 -1
    outer loop
      vertex -67.4922 -14.3459 0
      vertex 63.0346 28.0648 0
      vertex 67.4922 14.3459 0
    endloop
  endfacet
  facet normal 0 0 -1
    outer loop
      vertex -67.4922 -14.3459 0
      vertex 67.4922 14.3459 0
      vertex 69 0 0
    endloop
  endfacet
  facet normal 0 0 -1
    outer loop
      vertex -67.4922 -14.3459 0
      vertex 69 0 0
      vertex 67.4922 -14.3459 0
    endloop
  endfacet
  facet normal 0 0 -1
    outer loop
      vertex -67.4922 -14.3459 0
      vertex 67.4922 -14.3459 0
      vertex 63.0346 -28.0648 0
    endloop
  endfacet
  facet normal 0 0 -1
    outer loop
      vertex -67.4922 -14.3459 0
      vertex 63.0346 -28.0648 0
      vertex 55.8222 -40.5572 0
    endloop
  endfacet
  facet normal 0 0 -1
    outer loop
      vertex -67.4922 -14.3459 0
      vertex 55.8222 -40.5572 0
      vertex 46.17 -51.277 0
    endloop
  endfacet
  facet normal 0 0 -1
    outer loop
      vertex -67.4922 -14.3459 0
      vertex 46.17 -51.277 0
      vertex 34.5 -59.7558 0
    endloop
  endfacet
  facet normal 0 0 -1
    outer loop
      vertex -67.4922 -14.3459 0
      vertex 34.5 -59.7558 0
      vertex 21.3222 -65.6229 0
    endloop
  endfacet
  facet normal 0 0 -1
    outer loop
      vertex -67.4922 -14.3459 0
      vertex 21.3222 -65.6229 0
      vertex 7.21246 -68.622 0
    endloop
  endfacet
  facet normal 0 0 -1
    outer loop
      vertex -67.4922 -14.3459 0
      vertex 7.21246 -68.622 0
      vertex -7.21246 -68.622 0
    endloop
  endfacet
  facet normal 0 0 -1
    outer loop
      vertex -67.4922 -14.3459 0
      vertex -7.21246 -68.622 0
      vertex -21.3222 -65.6229 0
    endloop
  endfacet
  facet normal 0 0 -1
    outer loop
      vertex -67.4922 -14.3459 0
      vertex -21.3222 -65.6229 0
      vertex -34.5 -59.7558 0
    endloop
  endfacet
  facet normal 0 0 -1
    outer loop
      vertex -67.4922 -14.3459 0
      vertex -34.5 -59.7558 0
      vertex -46.17 -51.277 0
    endloop
  endfacet
  facet normal 0 0 -1
    outer loop
      vertex -67.4922 -14.3459 0
      vertex -46.17 -51.277 0
      vertex -55.8222 -40.5572 0
    endloop
  endfacet
  facet normal 0 0 -1
    outer loop
      vertex -67.4922 -14.3459 0
      vertex -55.8222 -40.5572 0
      vertex -63.0346 -28.0648 0
    endloop
  endfacet
  facet normal -0.994522 0.104528 0
    outer loop
      vertex -69 0 0
      vertex -69 0 59.8
      vertex -67.4922 14.3459 0
    endloop
  endfacet
  facet normal -0.994522 0.104528 0
    outer loop
      vertex -67.4922 14.3459 0
      vertex -69 0 59.8
      vertex -67.4922 14.3459 59.8
    endloop
  endfacet
  facet normal -0.994522 -0.104528 0
    outer loop
      vertex -69 0 0
      vertex -67.4922 -14.3459 0
      vertex -69 0 59.8
    endloop
  endfacet
  facet normal -0.994522 -0.104528 0
    outer loop
      vertex -69 0 59.8
      vertex -67.4922 -14.3459 0
      vertex -67.4922 -14.3459 59.8
    endloop
  endfacet
  facet normal -0.951057 -0.309017 0
    outer loop
      vertex -67.4922 -14.3459 0
      vertex -63.0346 -28.0648 0
      vertex -67.4922 -14.3459 59.8
    endloop
  endfacet
  facet normal -0.951057 -0.309017 0
    outer loop
      vertex -67.4922 -14.3459 59.8
      vertex -63.0346 -28.0648 0
      vertex -63.0346 -28.0648 59.8
    endloop
  endfacet
  facet normal -0.887629 -0.46056 0
    outer loop
      vertex -63.0346 -28.0648 59.8
      vertex -63.0346 -28.0648 0
      vertex -51.0885 -51.0885 59.8
    endloop
  endfacet
  facet normal -0.865861 -0.499905 -0.0194968
    outer loop
      vertex -51.0885 -51.0885 59.8
      vertex -63.0346 -28.0648 0
      vertex -55.8222 -40.5572 0
    endloop
  endfacet
  facet normal -0.741854 -0.667969 -0.0589104
    outer loop
      vertex -51.0885 -51.0885 59.8
      vertex -55.8222 -40.5572 0
      vertex -46.17 -51.277 0
    endloop
  endfacet
  facet normal -0.58717 -0.80817 -0.0457459
    outer loop
      vertex -34.5 -59.7558 0
      vertex -51.0885 -51.0885 59.8
      vertex -46.17 -51.277 0
    endloop
  endfacet
  facet normal -0.406737 -0.913545 0
    outer loop
      vertex -34.5 -59.7558 59.8
      vertex -34.5 -59.7558 0
      vertex -21.3222 -65.6229 0
    endloop
  endfacet
  facet normal -0.406737 -0.913545 0
    outer loop
      vertex -21.3222 -65.6229 59.8
      vertex -34.5 -59.7558 59.8
      vertex -21.3222 -65.6229 0
    endloop
  endfacet
  facet normal -0.463088 -0.886312 0
    outer loop
      vertex -34.5 -59.7558 59.8
      vertex -51.0885 -51.0885 59.8
      vertex -34.5 -59.7558 0
    endloop
  endfacet
  facet normal -0.207912 -0.978148 0
    outer loop
      vertex -21.3222 -65.6229 59.8
      vertex -21.3222 -65.6229 0
      vertex -7.21246 -68.622 0
    endloop
  endfacet
  facet normal -0.207912 -0.978148 0
    outer loop
      vertex -7.21246 -68.622 59.8
      vertex -21.3222 -65.6229 59.8
      vertex -7.21246 -68.622 0
    endloop
  endfacet
  facet normal 0 -1 0
    outer loop
      vertex -7.21246 -68.622 59.8
      vertex -7.21246 -68.622 0
      vertex 7.21246 -68.622 0
    endloop
  endfacet
  facet normal 0 -1 0
    outer loop
      vertex 7.21246 -68.622 59.8
      vertex -7.21246 -68.622 59.8
      vertex 7.21246 -68.622 0
    endloop
  endfacet
  facet normal 0.207912 -0.978148 0
    outer loop
      vertex 7.21246 -68.622 59.8
      vertex 7.21246 -68.622 0
      vertex 21.3222 -65.6229 0
    endloop
  endfacet
  facet normal 0.207912 -0.978148 0
    outer loop
      vertex 21.3222 -65.6229 59.8
      vertex 7.21246 -68.622 59.8
      vertex 21.3222 -65.6229 0
    endloop
  endfacet
  facet normal 0.406737 -0.913545 0
    outer loop
      vertex 21.3222 -65.6229 59.8
      vertex 21.3222 -65.6229 0
      vertex 34.5 -59.7558 0
    endloop
  endfacet
  facet normal 0.406737 -0.913545 0
    outer loop
      vertex 34.5 -59.7558 59.8
      vertex 21.3222 -65.6229 59.8
      vertex 34.5 -59.7558 0
    endloop
  endfacet
  facet normal 0.58717 -0.80817 -0.0457459
    outer loop
      vertex 51.0885 -51.0885 59.8
      vertex 34.5 -59.7558 0
      vertex 46.17 -51.277 0
    endloop
  endfacet
  facet normal 0.463088 -0.886312 0
    outer loop
      vertex 34.5 -59.7558 59.8
      vertex 34.5 -59.7558 0
      vertex 51.0885 -51.0885 59.8
    endloop
  endfacet
  facet normal 0.741854 -0.667969 -0.0589104
    outer loop
      vertex 51.0885 -51.0885 59.8
      vertex 46.17 -51.277 0
      vertex 55.8222 -40.5572 0
    endloop
  endfacet
  facet normal 0.865861 -0.499905 -0.0194968
    outer loop
      vertex 63.0346 -28.0648 0
      vertex 51.0885 -51.0885 59.8
      vertex 55.8222 -40.5572 0
    endloop
  endfacet
  facet normal 0.951057 -0.309017 0
    outer loop
      vertex 63.0346 -28.0648 59.8
      vertex 63.0346 -28.0648 0
      vertex 67.4922 -14.3459 0
    endloop
  endfacet
  facet normal 0.951057 -0.309017 0
    outer loop
      vertex 67.4922 -14.3459 59.8
      vertex 63.0346 -28.0648 59.8
      vertex 67.4922 -14.3459 0
    endloop
  endfacet
  facet normal 0.887629 -0.46056 0
    outer loop
      vertex 63.0346 -28.0648 59.8
      vertex 51.0885 -51.0885 59.8
      vertex 63.0346 -28.0648 0
    endloop
  endfacet
  facet normal 0.994522 -0.104528 0
    outer loop
      vertex 67.4922 -14.3459 59.8
      vertex 67.4922 -14.3459 0
      vertex 69 0 0
    endloop
  endfacet
  facet normal 0.994522 -0.104528 0
    outer loop
      vertex 68.7898 -2 31.8
      vertex 67.4922 -14.3459 59.8
      vertex 69 0 0
    endloop
  endfacet
  facet normal 0.994522 -0.104528 0
    outer loop
      vertex 69 0 31.8
      vertex 68.7898 -2 31.8
      vertex 69 0 0
    endloop
  endfacet
  facet normal 0.994522 -0.104528 0
    outer loop
      vertex 68.7898 -2 31.8
      vertex 68.7898 -2 59.8
      vertex 67.4922 -14.3459 59.8
    endloop
  endfacet
  facet normal 0.994522 0.104528 0
    outer loop
      vertex 69 0 0
      vertex 67.4922 14.3459 0
      vertex 67.4922 14.3459 59.8
    endloop
  endfacet
  facet normal 0.994522 0.104528 0
    outer loop
      vertex 68.7898 2 31.8
      vertex 69 0 0
      vertex 67.4922 14.3459 59.8
    endloop
  endfacet
  facet normal 0.994522 0.104528 0
    outer loop
      vertex 68.7898 2 59.8
      vertex 68.7898 2 31.8
      vertex 67.4922 14.3459 59.8
    endloop
  endfacet
  facet normal 0.994522 0.104528 0
    outer loop
      vertex 68.7898 2 31.8
      vertex 69 0 31.8
      vertex 69 0 0
    endloop
  endfacet
  facet normal 0.951057 0.309017 0
    outer loop
      vertex 67.4922 14.3459 0
      vertex 63.0346 28.0648 0
      vertex 63.0346 28.0648 59.8
    endloop
  endfacet
  facet normal 0.951057 0.309017 0
    outer loop
      vertex 67.4922 14.3459 59.8
      vertex 67.4922 14.3459 0
      vertex 63.0346 28.0648 59.8
    endloop
  endfacet
  facet normal 0.865861 0.499905 -0.0194968
    outer loop
      vertex 55.8222 40.5572 0
      vertex 51.0885 51.0885 59.8
      vertex 63.0346 28.0648 0
    endloop
  endfacet
  facet normal 0.887629 0.46056 0
    outer loop
      vertex 63.0346 28.0648 0
      vertex 51.0885 51.0885 59.8
      vertex 63.0346 28.0648 59.8
    endloop
  endfacet
  facet normal 0.741854 0.667969 -0.0589104
    outer loop
      vertex 55.8222 40.5572 0
      vertex 46.17 51.277 0
      vertex 51.0885 51.0885 59.8
    endloop
  endfacet
  facet normal 0.58717 0.80817 -0.0457459
    outer loop
      vertex 46.17 51.277 0
      vertex 34.5 59.7558 0
      vertex 51.0885 51.0885 59.8
    endloop
  endfacet
  facet normal 0.406737 0.913545 0
    outer loop
      vertex 21.3222 65.6229 0
      vertex 21.3222 65.6229 59.8
      vertex 34.5 59.7558 0
    endloop
  endfacet
  facet normal 0.406737 0.913545 0
    outer loop
      vertex 34.5 59.7558 0
      vertex 21.3222 65.6229 59.8
      vertex 34.5 59.7558 59.8
    endloop
  endfacet
  facet normal 0.463088 0.886312 0
    outer loop
      vertex 51.0885 51.0885 59.8
      vertex 34.5 59.7558 0
      vertex 34.5 59.7558 59.8
    endloop
  endfacet
  facet normal 0.207912 0.978148 0
    outer loop
      vertex 7.21246 68.622 0
      vertex 7.21246 68.622 59.8
      vertex 21.3222 65.6229 0
    endloop
  endfacet
  facet normal 0.207912 0.978148 0
    outer loop
      vertex 21.3222 65.6229 0
      vertex 7.21246 68.622 59.8
      vertex 21.3222 65.6229 59.8
    endloop
  endfacet
  facet normal 0 1 0
    outer loop
      vertex -7.21246 68.622 0
      vertex -7.21246 68.622 59.8
      vertex 7.21246 68.622 0
    endloop
  endfacet
  facet normal 0 1 0
    outer loop
      vertex 7.21246 68.622 0
      vertex -7.21246 68.622 59.8
      vertex 7.21246 68.622 59.8
    endloop
  endfacet
  facet normal -0.207912 0.978148 0
    outer loop
      vertex -21.3222 65.6229 0
      vertex -21.3222 65.6229 59.8
      vertex -7.21246 68.622 0
    endloop
  endfacet
  facet normal -0.207912 0.978148 0
    outer loop
      vertex -7.21246 68.622 0
      vertex -21.3222 65.6229 59.8
      vertex -7.21246 68.622 59.8
    endloop
  endfacet
  facet normal -0.406737 0.913545 0
    outer loop
      vertex -34.5 59.7558 0
      vertex -34.5 59.7558 59.8
      vertex -21.3222 65.6229 0
    endloop
  endfacet
  facet normal -0.406737 0.913545 0
    outer loop
      vertex -21.3222 65.6229 0
      vertex -34.5 59.7558 59.8
      vertex -21.3222 65.6229 59.8
    endloop
  endfacet
  facet normal -0.463088 0.886312 0
    outer loop
      vertex -34.5 59.7558 0
      vertex -51.0885 51.0885 59.8
      vertex -34.5 59.7558 59.8
    endloop
  endfacet
  facet normal -0.58717 0.80817 -0.0457459
    outer loop
      vertex -46.17 51.277 0
      vertex -51.0885 51.0885 59.8
      vertex -34.5 59.7558 0
    endloop
  endfacet
  facet normal -0.741854 0.667969 -0.0589104
    outer loop
      vertex -46.17 51.277 0
      vertex -55.8222 40.5572 0
      vertex -51.0885 51.0885 59.8
    endloop
  endfacet
  facet normal -0.865861 0.499905 -0.0194968
    outer loop
      vertex -55.8222 40.5572 0
      vertex -63.0346 28.0648 0
      vertex -51.0885 51.0885 59.8
    endloop
  endfacet
  facet normal -0.951057 0.309017 0
    outer loop
      vertex -67.4922 14.3459 0
      vertex -67.4922 14.3459 59.8
      vertex -63.0346 28.0648 0
    endloop
  endfacet
  facet normal -0.951057 0.309017 0
    outer loop
      vertex -63.0346 28.0648 0
      vertex -67.4922 14.3459 59.8
      vertex -63.0346 28.0648 59.8
    endloop
  endfacet
  facet normal -0.887629 0.46056 0
    outer loop
      vertex -51.0885 51.0885 59.8
      vertex -63.0346 28.0648 0
      vertex -63.0346 28.0648 59.8
    endloop
  endfacet
  facet normal 0 0 1
    outer loop
      vertex -67.4922 14.3459 59.8
      vertex -69 0 59.8
      vertex -67.4922 -14.3459 59.8
    endloop
  endfacet
  facet normal 0 0 1
    outer loop
      vertex -61.3299 -13.0361 59.8
      vertex -67.4922 14.3459 59.8
      vertex -63.0346 -28.0648 59.8
    endloop
  endfacet
  facet normal 0 0 1
    outer loop
      vertex -63.0346 -28.0648 59.8
      vertex -67.4922 14.3459 59.8
      vertex -67.4922 -14.3459 59.8
    endloop
  endfacet
  facet normal 0 0 1
    outer loop
      vertex -31.35 -54.2998 59.8
      vertex -41.9545 -46.5952 59.8
      vertex -34.5 -59.7558 59.8
    endloop
  endfacet
  facet normal 0 0 1
    outer loop
      vertex -19.3754 -59.6312 59.8
      vertex -31.35 -54.2998 59.8
      vertex -21.3222 -65.6229 59.8
    endloop
  endfacet
  facet normal 0 0 1
    outer loop
      vertex -6.55394 -62.3565 59.8
      vertex -19.3754 -59.6312 59.8
      vertex -7.21246 -68.622 59.8
    endloop
  endfacet
  facet normal 0 0 1
    outer loop
      vertex 6.55394 -62.3565 59.8
      vertex -6.55394 -62.3565 59.8
      vertex 7.21246 -68.622 59.8
    endloop
  endfacet
  facet normal 0 0 1
    outer loop
      vertex 19.3754 -59.6312 59.8
      vertex 6.55394 -62.3565 59.8
      vertex 21.3222 -65.6229 59.8
    endloop
  endfacet
  facet normal 0 0 1
    outer loop
      vertex 31.35 -54.2998 59.8
      vertex 19.3754 -59.6312 59.8
      vertex 34.5 -59.7558 59.8
    endloop
  endfacet
  facet normal 0 0 1
    outer loop
      vertex 50.7254 -36.8541 59.8
      vertex 41.9545 -46.5952 59.8
      vertex 45.2573 -46.5391 59.8
    endloop
  endfacet
  facet normal 0 0 1
    outer loop
      vertex 68.7898 -2 59.8
      vertex 62.4898 -2 59.8
      vertex 67.4922 -14.3459 59.8
    endloop
  endfacet
  facet normal 0 0 1
    outer loop
      vertex -51.8545 -49.4456 59.8
      vertex -51.3854 -47.6947 59.8
      vertex -57.2793 -25.5024 59.8
    endloop
  endfacet
  facet normal 0 0 1
    outer loop
      vertex 62.4898 -2 59.8
      vertex 61.3299 -13.0361 59.8
      vertex 67.4922 -14.3459 59.8
    endloop
  endfacet
  facet normal 0 0 1
    outer loop
      vertex 67.4922 -14.3459 59.8
      vertex 57.2793 -25.5024 59.8
      vertex 63.0346 -28.0648 59.8
    endloop
  endfacet
  facet normal 0 0 1
    outer loop
      vertex 45.0993 -48.3449 59.8
      vertex 41.9545 -46.5952 59.8
      vertex 34.5 -59.7558 59.8
    endloop
  endfacet
  facet normal 0 0 1
    outer loop
      vertex 41.9545 -46.5952 59.8
      vertex 31.35 -54.2998 59.8
      vertex 34.5 -59.7558 59.8
    endloop
  endfacet
  facet normal 0 0 1
    outer loop
      vertex -61.3299 13.0361 59.8
      vertex -57.2793 25.5024 59.8
      vertex -67.4922 14.3459 59.8
    endloop
  endfacet
  facet normal 0 0 1
    outer loop
      vertex 34.5 -59.7558 59.8
      vertex 19.3754 -59.6312 59.8
      vertex 21.3222 -65.6229 59.8
    endloop
  endfacet
  facet normal 0 0 1
    outer loop
      vertex 21.3222 -65.6229 59.8
      vertex 6.55394 -62.3565 59.8
      vertex 7.21246 -68.622 59.8
    endloop
  endfacet
  facet normal 0 0 1
    outer loop
      vertex -51.3854 -47.6947 59.8
      vertex -49.8298 -46.139 59.8
      vertex -50.7254 -36.8541 59.8
    endloop
  endfacet
  facet normal 0 0 1
    outer loop
      vertex 7.21246 -68.622 59.8
      vertex -6.55394 -62.3565 59.8
      vertex -7.21246 -68.622 59.8
    endloop
  endfacet
  facet normal 0 0 1
    outer loop
      vertex -7.21246 -68.622 59.8
      vertex -19.3754 -59.6312 59.8
      vertex -21.3222 -65.6229 59.8
    endloop
  endfacet
  facet normal 0 0 1
    outer loop
      vertex -21.3222 -65.6229 59.8
      vertex -31.35 -54.2998 59.8
      vertex -34.5 -59.7558 59.8
    endloop
  endfacet
  facet normal 0 0 1
    outer loop
      vertex -46.5391 -45.2573 59.8
      vertex -45.2573 -46.5391 59.8
      vertex -41.9545 -46.5952 59.8
    endloop
  endfacet
  facet normal 0 0 1
    outer loop
      vertex -51.8545 -49.4456 59.8
      vertex -61.3299 -13.0361 59.8
      vertex -63.0346 -28.0648 59.8
    endloop
  endfacet
  facet normal 0 0 1
    outer loop
      vertex 57.2793 -25.5024 59.8
      vertex 50.7254 -36.8541 59.8
      vertex 63.0346 -28.0648 59.8
    endloop
  endfacet
  facet normal 0 0 1
    outer loop
      vertex -50.7254 36.8541 59.8
      vertex -67.4922 14.3459 59.8
      vertex -57.2793 25.5024 59.8
    endloop
  endfacet
  facet normal 0 0 1
    outer loop
      vertex -34.5 59.7558 59.8
      vertex -67.4922 14.3459 59.8
      vertex -50.7254 36.8541 59.8
    endloop
  endfacet
  facet normal 0 0 1
    outer loop
      vertex -34.5 59.7558 59.8
      vertex -50.7254 36.8541 59.8
      vertex -41.9545 46.5952 59.8
    endloop
  endfacet
  facet normal 0 0 1
    outer loop
      vertex -21.3222 65.6229 59.8
      vertex -41.9545 46.5952 59.8
      vertex -31.35 54.2998 59.8
    endloop
  endfacet
  facet normal 0 0 1
    outer loop
      vertex 61.3299 13.0361 59.8
      vertex 68.7898 2 59.8
      vertex 57.2793 25.5024 59.8
    endloop
  endfacet
  facet normal 0 0 1
    outer loop
      vertex -7.21246 68.622 59.8
      vertex -31.35 54.2998 59.8
      vertex -19.3754 59.6312 59.8
    endloop
  endfacet
  facet normal 0 0 1
    outer loop
      vertex 62.4898 2 59.8
      vertex 68.7898 2 59.8
      vertex 61.3299 13.0361 59.8
    endloop
  endfacet
  facet normal 0 0 1
    outer loop
      vertex 7.21246 68.622 59.8
      vertex -19.3754 59.6312 59.8
      vertex -6.55394 62.3565 59.8
    endloop
  endfacet
  facet normal 0 0 1
    outer loop
      vertex 21.3222 65.6229 59.8
      vertex -6.55394 62.3565 59.8
      vertex 6.55394 62.3565 59.8
    endloop
  endfacet
  facet normal 0 0 1
    outer loop
      vertex 34.5 59.7558 59.8
      vertex 6.55394 62.3565 59.8
      vertex 19.3754 59.6312 59.8
    endloop
  endfacet
  facet normal 0 0 1
    outer loop
      vertex 45.0993 48.3449 59.8
      vertex 31.35 54.2998 59.8
      vertex 41.9545 46.5952 59.8
    endloop
  endfacet
  facet normal 0 0 1
    outer loop
      vertex 63.0346 28.0648 59.8
      vertex 41.9545 46.5952 59.8
      vertex 50.7254 36.8541 59.8
    endloop
  endfacet
  facet normal 0 0 1
    outer loop
      vertex -51.8545 -49.4456 59.8
      vertex -57.2793 -25.5024 59.8
      vertex -61.3299 -13.0361 59.8
    endloop
  endfacet
  facet normal 0 0 1
    outer loop
      vertex 67.4922 14.3459 59.8
      vertex 50.7254 36.8541 59.8
      vertex 57.2793 25.5024 59.8
    endloop
  endfacet
  facet normal 0 0 1
    outer loop
      vertex 67.4922 14.3459 59.8
      vertex 57.2793 25.5024 59.8
      vertex 68.7898 2 59.8
    endloop
  endfacet
  facet normal 0 0 1
    outer loop
      vertex 63.0346 28.0648 59.8
      vertex 50.7254 36.8541 59.8
      vertex 67.4922 14.3459 59.8
    endloop
  endfacet
  facet normal 0 0 1
    outer loop
      vertex 45.2573 46.5391 59.8
      vertex 41.9545 46.5952 59.8
      vertex 63.0346 28.0648 59.8
    endloop
  endfacet
  facet normal 0 0 1
    outer loop
      vertex 21.3222 65.6229 59.8
      vertex 6.55394 62.3565 59.8
      vertex 34.5 59.7558 59.8
    endloop
  endfacet
  facet normal 0 0 1
    outer loop
      vertex 7.21246 68.622 59.8
      vertex -6.55394 62.3565 59.8
      vertex 21.3222 65.6229 59.8
    endloop
  endfacet
  facet normal 0 0 1
    outer loop
      vertex -7.21246 68.622 59.8
      vertex -19.3754 59.6312 59.8
      vertex 7.21246 68.622 59.8
    endloop
  endfacet
  facet normal 0 0 1
    outer loop
      vertex -21.3222 65.6229 59.8
      vertex -31.35 54.2998 59.8
      vertex -7.21246 68.622 59.8
    endloop
  endfacet
  facet normal 0 0 1
    outer loop
      vertex -34.5 59.7558 59.8
      vertex -41.9545 46.5952 59.8
      vertex -21.3222 65.6229 59.8
    endloop
  endfacet
  facet normal 0 0 1
    outer loop
      vertex -45.2573 46.5391 59.8
      vertex -67.4922 14.3459 59.8
      vertex -34.5 59.7558 59.8
    endloop
  endfacet
  facet normal 0 0 1
    outer loop
      vertex -51.0885 -51.0885 59.8
      vertex -51.8545 -49.4456 59.8
      vertex -63.0346 -28.0648 59.8
    endloop
  endfacet
  facet normal 0 0 1
    outer loop
      vertex -50.7254 -36.8541 59.8
      vertex -57.2793 -25.5024 59.8
      vertex -51.3854 -47.6947 59.8
    endloop
  endfacet
  facet normal 0 0 1
    outer loop
      vertex -48.3449 -45.0993 59.8
      vertex -50.7254 -36.8541 59.8
      vertex -49.8298 -46.139 59.8
    endloop
  endfacet
  facet normal 0 0 1
    outer loop
      vertex -45.2573 -46.5391 59.8
      vertex -45.0993 -48.3449 59.8
      vertex -41.9545 -46.5952 59.8
    endloop
  endfacet
  facet normal 0 0 1
    outer loop
      vertex -46.5391 -45.2573 59.8
      vertex -50.7254 -36.8541 59.8
      vertex -48.3449 -45.0993 59.8
    endloop
  endfacet
  facet normal 0 0 1
    outer loop
      vertex -41.9545 -46.5952 59.8
      vertex -50.7254 -36.8541 59.8
      vertex -46.5391 -45.2573 59.8
    endloop
  endfacet
  facet normal 0 0 1
    outer loop
      vertex -51.3854 47.6947 59.8
      vertex -51.8545 49.4456 59.8
      vertex -67.4922 14.3459 59.8
    endloop
  endfacet
  facet normal 0 0 1
    outer loop
      vertex -34.5 -59.7558 59.8
      vertex -41.9545 -46.5952 59.8
      vertex -45.0993 -48.3449 59.8
    endloop
  endfacet
  facet normal 0 0 1
    outer loop
      vertex -34.5 -59.7558 59.8
      vertex -45.0993 -48.3449 59.8
      vertex -46.139 -49.8298 59.8
    endloop
  endfacet
  facet normal 0 0 1
    outer loop
      vertex -34.5 -59.7558 59.8
      vertex -46.139 -49.8298 59.8
      vertex -47.6947 -51.3854 59.8
    endloop
  endfacet
  facet normal 0 0 1
    outer loop
      vertex -34.5 -59.7558 59.8
      vertex -49.4456 -51.8545 59.8
      vertex -51.0885 -51.0885 59.8
    endloop
  endfacet
  facet normal 0 0 1
    outer loop
      vertex -34.5 -59.7558 59.8
      vertex -47.6947 -51.3854 59.8
      vertex -49.4456 -51.8545 59.8
    endloop
  endfacet
  facet normal 0 0 1
    outer loop
      vertex -47.6947 51.3854 59.8
      vertex -46.139 49.8298 59.8
      vertex -34.5 59.7558 59.8
    endloop
  endfacet
  facet normal 0 0 1
    outer loop
      vertex -46.5391 45.2573 59.8
      vertex -48.3449 45.0993 59.8
      vertex -67.4922 14.3459 59.8
    endloop
  endfacet
  facet normal 0 0 1
    outer loop
      vertex -63.0346 28.0648 59.8
      vertex -51.8545 49.4456 59.8
      vertex -51.0885 51.0885 59.8
    endloop
  endfacet
  facet normal 0 0 1
    outer loop
      vertex -63.0346 28.0648 59.8
      vertex -67.4922 14.3459 59.8
      vertex -51.8545 49.4456 59.8
    endloop
  endfacet
  facet normal 0 0 1
    outer loop
      vertex -51.0885 51.0885 59.8
      vertex -49.4456 51.8545 59.8
      vertex -34.5 59.7558 59.8
    endloop
  endfacet
  facet normal 0 0 1
    outer loop
      vertex -49.4456 51.8545 59.8
      vertex -47.6947 51.3854 59.8
      vertex -34.5 59.7558 59.8
    endloop
  endfacet
  facet normal 0 0 1
    outer loop
      vertex 45.2573 46.5391 59.8
      vertex 45.0993 48.3449 59.8
      vertex 41.9545 46.5952 59.8
    endloop
  endfacet
  facet normal 0 0 1
    outer loop
      vertex -46.139 49.8298 59.8
      vertex -45.0993 48.3449 59.8
      vertex -34.5 59.7558 59.8
    endloop
  endfacet
  facet normal 0 0 1
    outer loop
      vertex -45.0993 48.3449 59.8
      vertex -45.2573 46.5391 59.8
      vertex -34.5 59.7558 59.8
    endloop
  endfacet
  facet normal 0 0 1
    outer loop
      vertex -46.5391 45.2573 59.8
      vertex -67.4922 14.3459 59.8
      vertex -45.2573 46.5391 59.8
    endloop
  endfacet
  facet normal 0 0 1
    outer loop
      vertex -48.3449 45.0993 59.8
      vertex -49.8298 46.139 59.8
      vertex -67.4922 14.3459 59.8
    endloop
  endfacet
  facet normal 0 0 1
    outer loop
      vertex 45.0993 -48.3449 59.8
      vertex 45.2573 -46.5391 59.8
      vertex 41.9545 -46.5952 59.8
    endloop
  endfacet
  facet normal 0 0 1
    outer loop
      vertex -51.3854 47.6947 59.8
      vertex -67.4922 14.3459 59.8
      vertex -49.8298 46.139 59.8
    endloop
  endfacet
  facet normal 0 0 1
    outer loop
      vertex 46.139 -49.8298 59.8
      vertex 45.0993 -48.3449 59.8
      vertex 34.5 -59.7558 59.8
    endloop
  endfacet
  facet normal 0 0 1
    outer loop
      vertex 49.8298 -46.139 59.8
      vertex 51.3854 -47.6947 59.8
      vertex 50.7254 -36.8541 59.8
    endloop
  endfacet
  facet normal 0 0 1
    outer loop
      vertex 47.6947 51.3854 59.8
      vertex 49.4456 51.8545 59.8
      vertex 19.3754 59.6312 59.8
    endloop
  endfacet
  facet normal 0 0 1
    outer loop
      vertex -61.3299 -13.0361 59.8
      vertex -62.7 0 59.8
      vertex -67.4922 14.3459 59.8
    endloop
  endfacet
  facet normal 0 0 1
    outer loop
      vertex 50.7254 -36.8541 59.8
      vertex 45.2573 -46.5391 59.8
      vertex 46.5391 -45.2573 59.8
    endloop
  endfacet
  facet normal 0 0 1
    outer loop
      vertex 50.7254 -36.8541 59.8
      vertex 46.5391 -45.2573 59.8
      vertex 48.3449 -45.0993 59.8
    endloop
  endfacet
  facet normal 0 0 1
    outer loop
      vertex 50.7254 -36.8541 59.8
      vertex 48.3449 -45.0993 59.8
      vertex 49.8298 -46.139 59.8
    endloop
  endfacet
  facet normal 0 0 1
    outer loop
      vertex 63.0346 -28.0648 59.8
      vertex 50.7254 -36.8541 59.8
      vertex 51.3854 -47.6947 59.8
    endloop
  endfacet
  facet normal 0 0 1
    outer loop
      vertex 63.0346 -28.0648 59.8
      vertex 51.8545 -49.4456 59.8
      vertex 51.0885 -51.0885 59.8
    endloop
  endfacet
  facet normal 0 0 1
    outer loop
      vertex 63.0346 -28.0648 59.8
      vertex 51.3854 -47.6947 59.8
      vertex 51.8545 -49.4456 59.8
    endloop
  endfacet
  facet normal 0 0 1
    outer loop
      vertex 51.0885 -51.0885 59.8
      vertex 49.4456 -51.8545 59.8
      vertex 34.5 -59.7558 59.8
    endloop
  endfacet
  facet normal 0 0 1
    outer loop
      vertex 49.4456 -51.8545 59.8
      vertex 47.6947 -51.3854 59.8
      vertex 34.5 -59.7558 59.8
    endloop
  endfacet
  facet normal 0 0 1
    outer loop
      vertex 47.6947 -51.3854 59.8
      vertex 46.139 -49.8298 59.8
      vertex 34.5 -59.7558 59.8
    endloop
  endfacet
  facet normal 0 0 1
    outer loop
      vertex 46.5391 45.2573 59.8
      vertex 45.2573 46.5391 59.8
      vertex 63.0346 28.0648 59.8
    endloop
  endfacet
  facet normal 0 0 1
    outer loop
      vertex 47.6947 51.3854 59.8
      vertex 19.3754 59.6312 59.8
      vertex 31.35 54.2998 59.8
    endloop
  endfacet
  facet normal 0 0 1
    outer loop
      vertex 46.139 49.8298 59.8
      vertex 31.35 54.2998 59.8
      vertex 45.0993 48.3449 59.8
    endloop
  endfacet
  facet normal 0 0 1
    outer loop
      vertex 47.6947 51.3854 59.8
      vertex 31.35 54.2998 59.8
      vertex 46.139 49.8298 59.8
    endloop
  endfacet
  facet normal 0 0 1
    outer loop
      vertex 34.5 59.7558 59.8
      vertex 49.4456 51.8545 59.8
      vertex 51.0885 51.0885 59.8
    endloop
  endfacet
  facet normal 0 0 1
    outer loop
      vertex 34.5 59.7558 59.8
      vertex 19.3754 59.6312 59.8
      vertex 49.4456 51.8545 59.8
    endloop
  endfacet
  facet normal 0 0 1
    outer loop
      vertex 51.0885 51.0885 59.8
      vertex 51.8545 49.4456 59.8
      vertex 63.0346 28.0648 59.8
    endloop
  endfacet
  facet normal 0 0 1
    outer loop
      vertex 51.8545 49.4456 59.8
      vertex 51.3854 47.6947 59.8
      vertex 63.0346 28.0648 59.8
    endloop
  endfacet
  facet normal 0 0 1
    outer loop
      vertex 51.3854 47.6947 59.8
      vertex 49.8298 46.139 59.8
      vertex 63.0346 28.0648 59.8
    endloop
  endfacet
  facet normal 0 0 1
    outer loop
      vertex 49.8298 46.139 59.8
      vertex 48.3449 45.0993 59.8
      vertex 63.0346 28.0648 59.8
    endloop
  endfacet
  facet normal 0 0 1
    outer loop
      vertex 48.3449 45.0993 59.8
      vertex 46.5391 45.2573 59.8
      vertex 63.0346 28.0648 59.8
    endloop
  endfacet
  facet normal 0 0 1
    outer loop
      vertex 61.3299 -13.0361 59.8
      vertex 57.2793 -25.5024 59.8
      vertex 67.4922 -14.3459 59.8
    endloop
  endfacet
  facet normal 0 0 1
    outer loop
      vertex -62.7 0 59.8
      vertex -61.3299 13.0361 59.8
      vertex -67.4922 14.3459 59.8
    endloop
  endfacet
  facet normal 0 1 0
    outer loop
      vertex 68.7898 -2 59.8
      vertex 68.7898 -2 31.8
      vertex 62.4898 -2 59.8
    endloop
  endfacet
  facet normal 0 1 0
    outer loop
      vertex 62.4898 -2 59.8
      vertex 68.7898 -2 31.8
      vertex 62.4898 -2 31.8
    endloop
  endfacet
  facet normal 0 0 1
    outer loop
      vertex 68.7898 -2 31.8
      vertex 69 0 31.8
      vertex 68.7898 2 31.8
    endloop
  endfacet
  facet normal 0 0 1
    outer loop
      vertex 62.7 0 31.8
      vertex 68.7898 -2 31.8
      vertex 62.4898 2 31.8
    endloop
  endfacet
  facet normal 0 0 1
    outer loop
      vertex 62.4898 2 31.8
      vertex 68.7898 -2 31.8
      vertex 68.7898 2 31.8
    endloop
  endfacet
  facet normal 0 0 1
    outer loop
      vertex 62.4898 -2 31.8
      vertex 68.7898 -2 31.8
      vertex 62.7 0 31.8
    endloop
  endfacet
  facet normal 0 -1 0
    outer loop
      vertex 68.7898 2 31.8
      vertex 68.7898 2 59.8
      vertex 62.4898 2 59.8
    endloop
  endfacet
  facet normal 0 -1 0
    outer loop
      vertex 62.4898 2 31.8
      vertex 68.7898 2 31.8
      vertex 62.4898 2 59.8
    endloop
  endfacet
  facet normal -0.994522 -0.104528 0
    outer loop
      vertex 62.7 0 31.8
      vertex 62.4898 2 31.8
      vertex 62.7 0 7
    endloop
  endfacet
  facet normal -0.994522 -0.104528 0
    outer loop
      vertex 61.3299 13.0361 59.8
      vertex 62.4898 2 31.8
      vertex 62.4898 2 59.8
    endloop
  endfacet
  facet normal -0.994522 -0.104528 0
    outer loop
      vertex 62.7 0 7
      vertex 62.4898 2 31.8
      vertex 61.3299 13.0361 59.8
    endloop
  endfacet
  facet normal -0.994522 -0.104528 0
    outer loop
      vertex 62.7 0 7
      vertex 61.3299 13.0361 59.8
      vertex 61.3299 13.0361 7
    endloop
  endfacet
  facet normal -0.951057 -0.309017 0
    outer loop
      vertex 61.3299 13.0361 59.8
      vertex 57.2793 25.5024 59.8
      vertex 61.3299 13.0361 7
    endloop
  endfacet
  facet normal -0.951057 -0.309017 0
    outer loop
      vertex 61.3299 13.0361 7
      vertex 57.2793 25.5024 59.8
      vertex 57.2793 25.5024 7
    endloop
  endfacet
  facet normal -0.866025 -0.5 0
    outer loop
      vertex 57.2793 25.5024 59.8
      vertex 50.7254 36.8541 59.8
      vertex 57.2793 25.5024 7
    endloop
  endfacet
  facet normal -0.866025 -0.5 0
    outer loop
      vertex 57.2793 25.5024 7
      vertex 50.7254 36.8541 59.8
      vertex 50.7254 36.8541 7
    endloop
  endfacet
  facet normal -0.743145 -0.669131 0
    outer loop
      vertex 50.7254 36.8541 59.8
      vertex 41.9545 46.5952 59.8
      vertex 50.7254 36.8541 7
    endloop
  endfacet
  facet normal -0.743145 -0.669131 0
    outer loop
      vertex 50.7254 36.8541 7
      vertex 41.9545 46.5952 59.8
      vertex 41.9545 46.5952 7
    endloop
  endfacet
  facet normal -0.587785 -0.809017 0
    outer loop
      vertex 41.9545 46.5952 7
      vertex 41.9545 46.5952 59.8
      vertex 31.35 54.2998 59.8
    endloop
  endfacet
  facet normal -0.587785 -0.809017 0
    outer loop
      vertex 31.35 54.2998 7
      vertex 41.9545 46.5952 7
      vertex 31.35 54.2998 59.8
    endloop
  endfacet
  facet normal -0.406737 -0.913545 0
    outer loop
      vertex 31.35 54.2998 7
      vertex 31.35 54.2998 59.8
      vertex 19.3754 59.6312 59.8
    endloop
  endfacet
  facet normal -0.406737 -0.913545 0
    outer loop
      vertex 19.3754 59.6312 7
      vertex 31.35 54.2998 7
      vertex 19.3754 59.6312 59.8
    endloop
  endfacet
  facet normal -0.207912 -0.978148 0
    outer loop
      vertex 19.3754 59.6312 7
      vertex 19.3754 59.6312 59.8
      vertex 6.55394 62.3565 59.8
    endloop
  endfacet
  facet normal -0.207912 -0.978148 0
    outer loop
      vertex 6.55394 62.3565 7
      vertex 19.3754 59.6312 7
      vertex 6.55394 62.3565 59.8
    endloop
  endfacet
  facet normal 0 -1 0
    outer loop
      vertex 6.55394 62.3565 7
      vertex 6.55394 62.3565 59.8
      vertex -6.55394 62.3565 59.8
    endloop
  endfacet
  facet normal 0 -1 0
    outer loop
      vertex -6.55394 62.3565 7
      vertex 6.55394 62.3565 7
      vertex -6.55394 62.3565 59.8
    endloop
  endfacet
  facet normal 0.207912 -0.978148 0
    outer loop
      vertex -6.55394 62.3565 7
      vertex -6.55394 62.3565 59.8
      vertex -19.3754 59.6312 59.8
    endloop
  endfacet
  facet normal 0.207912 -0.978148 0
    outer loop
      vertex -19.3754 59.6312 7
      vertex -6.55394 62.3565 7
      vertex -19.3754 59.6312 59.8
    endloop
  endfacet
  facet normal 0.406737 -0.913545 0
    outer loop
      vertex -19.3754 59.6312 7
      vertex -19.3754 59.6312 59.8
      vertex -31.35 54.2998 59.8
    endloop
  endfacet
  facet normal 0.406737 -0.913545 0
    outer loop
      vertex -31.35 54.2998 7
      vertex -19.3754 59.6312 7
      vertex -31.35 54.2998 59.8
    endloop
  endfacet
  facet normal 0.587785 -0.809017 0
    outer loop
      vertex -31.35 54.2998 7
      vertex -31.35 54.2998 59.8
      vertex -41.9545 46.5952 59.8
    endloop
  endfacet
  facet normal 0.587785 -0.809017 0
    outer loop
      vertex -41.9545 46.5952 7
      vertex -31.35 54.2998 7
      vertex -41.9545 46.5952 59.8
    endloop
  endfacet
  facet normal 0.743145 -0.669131 0
    outer loop
      vertex -41.9545 46.5952 7
      vertex -41.9545 46.5952 59.8
      vertex -50.7254 36.8541 59.8
    endloop
  endfacet
  facet normal 0.743145 -0.669131 0
    outer loop
      vertex -50.7254 36.8541 7
      vertex -41.9545 46.5952 7
      vertex -50.7254 36.8541 59.8
    endloop
  endfacet
  facet normal 0.866025 -0.5 0
    outer loop
      vertex -50.7254 36.8541 7
      vertex -50.7254 36.8541 59.8
      vertex -57.2793 25.5024 59.8
    endloop
  endfacet
  facet normal 0.866025 -0.5 0
    outer loop
      vertex -57.2793 25.5024 7
      vertex -50.7254 36.8541 7
      vertex -57.2793 25.5024 59.8
    endloop
  endfacet
  facet normal 0.951057 -0.309017 0
    outer loop
      vertex -57.2793 25.5024 7
      vertex -57.2793 25.5024 59.8
      vertex -61.3299 13.0361 59.8
    endloop
  endfacet
  facet normal 0.951057 -0.309017 0
    outer loop
      vertex -61.3299 13.0361 7
      vertex -57.2793 25.5024 7
      vertex -61.3299 13.0361 59.8
    endloop
  endfacet
  facet normal 0.994522 -0.104528 0
    outer loop
      vertex -61.3299 13.0361 7
      vertex -61.3299 13.0361 59.8
      vertex -62.7 0 59.8
    endloop
  endfacet
  facet normal 0.994522 -0.104528 0
    outer loop
      vertex -62.7 0 7
      vertex -61.3299 13.0361 7
      vertex -62.7 0 59.8
    endloop
  endfacet
  facet normal 0.994522 0.104528 0
    outer loop
      vertex -62.7 0 59.8
      vertex -61.3299 -13.0361 59.8
      vertex -61.3299 -13.0361 7
    endloop
  endfacet
  facet normal 0.994522 0.104528 0
    outer loop
      vertex -62.7 0 7
      vertex -62.7 0 59.8
      vertex -61.3299 -13.0361 7
    endloop
  endfacet
  facet normal 0.951057 0.309017 0
    outer loop
      vertex -61.3299 -13.0361 59.8
      vertex -57.2793 -25.5024 59.8
      vertex -57.2793 -25.5024 7
    endloop
  endfacet
  facet normal 0.951057 0.309017 0
    outer loop
      vertex -61.3299 -13.0361 7
      vertex -61.3299 -13.0361 59.8
      vertex -57.2793 -25.5024 7
    endloop
  endfacet
  facet normal 0.866025 0.5 0
    outer loop
      vertex -57.2793 -25.5024 59.8
      vertex -50.7254 -36.8541 59.8
      vertex -50.7254 -36.8541 7
    endloop
  endfacet
  facet normal 0.866025 0.5 0
    outer loop
      vertex -57.2793 -25.5024 7
      vertex -57.2793 -25.5024 59.8
      vertex -50.7254 -36.8541 7
    endloop
  endfacet
  facet normal 0.743145 0.669131 0
    outer loop
      vertex -50.7254 -36.8541 59.8
      vertex -41.9545 -46.5952 59.8
      vertex -41.9545 -46.5952 7
    endloop
  endfacet
  facet normal 0.743145 0.669131 0
    outer loop
      vertex -50.7254 -36.8541 7
      vertex -50.7254 -36.8541 59.8
      vertex -41.9545 -46.5952 7
    endloop
  endfacet
  facet normal 0.587785 0.809017 0
    outer loop
      vertex -31.35 -54.2998 59.8
      vertex -31.35 -54.2998 7
      vertex -41.9545 -46.5952 59.8
    endloop
  endfacet
  facet normal 0.587785 0.809017 0
    outer loop
      vertex -41.9545 -46.5952 59.8
      vertex -31.35 -54.2998 7
      vertex -41.9545 -46.5952 7
    endloop
  endfacet
  facet normal 0.406737 0.913545 0
    outer loop
      vertex -19.3754 -59.6312 59.8
      vertex -19.3754 -59.6312 7
      vertex -31.35 -54.2998 59.8
    endloop
  endfacet
  facet normal 0.406737 0.913545 0
    outer loop
      vertex -31.35 -54.2998 59.8
      vertex -19.3754 -59.6312 7
      vertex -31.35 -54.2998 7
    endloop
  endfacet
  facet normal 0.207912 0.978148 0
    outer loop
      vertex -6.55394 -62.3565 59.8
      vertex -6.55394 -62.3565 7
      vertex -19.3754 -59.6312 59.8
    endloop
  endfacet
  facet normal 0.207912 0.978148 0
    outer loop
      vertex -19.3754 -59.6312 59.8
      vertex -6.55394 -62.3565 7
      vertex -19.3754 -59.6312 7
    endloop
  endfacet
  facet normal 0 1 0
    outer loop
      vertex 6.55394 -62.3565 59.8
      vertex 6.55394 -62.3565 7
      vertex -6.55394 -62.3565 59.8
    endloop
  endfacet
  facet normal 0 1 0
    outer loop
      vertex -6.55394 -62.3565 59.8
      vertex 6.55394 -62.3565 7
      vertex -6.55394 -62.3565 7
    endloop
  endfacet
  facet normal -0.207912 0.978148 0
    outer loop
      vertex 19.3754 -59.6312 59.8
      vertex 19.3754 -59.6312 7
      vertex 6.55394 -62.3565 59.8
    endloop
  endfacet
  facet normal -0.207912 0.978148 0
    outer loop
      vertex 6.55394 -62.3565 59.8
      vertex 19.3754 -59.6312 7
      vertex 6.55394 -62.3565 7
    endloop
  endfacet
  facet normal -0.406737 0.913545 0
    outer loop
      vertex 31.35 -54.2998 59.8
      vertex 31.35 -54.2998 7
      vertex 19.3754 -59.6312 59.8
    endloop
  endfacet
  facet normal -0.406737 0.913545 0
    outer loop
      vertex 19.3754 -59.6312 59.8
      vertex 31.35 -54.2998 7
      vertex 19.3754 -59.6312 7
    endloop
  endfacet
  facet normal -0.587785 0.809017 0
    outer loop
      vertex 41.9545 -46.5952 59.8
      vertex 41.9545 -46.5952 7
      vertex 31.35 -54.2998 59.8
    endloop
  endfacet
  facet normal -0.587785 0.809017 0
    outer loop
      vertex 31.35 -54.2998 59.8
      vertex 41.9545 -46.5952 7
      vertex 31.35 -54.2998 7
    endloop
  endfacet
  facet normal -0.743145 0.669131 0
    outer loop
      vertex 50.7254 -36.8541 59.8
      vertex 50.7254 -36.8541 7
      vertex 41.9545 -46.5952 59.8
    endloop
  endfacet
  facet normal -0.743145 0.669131 0
    outer loop
      vertex 41.9545 -46.5952 59.8
      vertex 50.7254 -36.8541 7
      vertex 41.9545 -46.5952 7
    endloop
  endfacet
  facet normal -0.866025 0.5 0
    outer loop
      vertex 57.2793 -25.5024 59.8
      vertex 57.2793 -25.5024 7
      vertex 50.7254 -36.8541 59.8
    endloop
  endfacet
  facet normal -0.866025 0.5 0
    outer loop
      vertex 50.7254 -36.8541 59.8
      vertex 57.2793 -25.5024 7
      vertex 50.7254 -36.8541 7
    endloop
  endfacet
  facet normal -0.951057 0.309017 0
    outer loop
      vertex 61.3299 -13.0361 59.8
      vertex 61.3299 -13.0361 7
      vertex 57.2793 -25.5024 59.8
    endloop
  endfacet
  facet normal -0.951057 0.309017 0
    outer loop
      vertex 57.2793 -25.5024 59.8
      vertex 61.3299 -13.0361 7
      vertex 57.2793 -25.5024 7
    endloop
  endfacet
  facet normal -0.994522 0.104528 0
    outer loop
      vertex 62.4898 -2 59.8
      vertex 62.4898 -2 31.8
      vertex 61.3299 -13.0361 59.8
    endloop
  endfacet
  facet normal -0.994522 0.104528 0
    outer loop
      vertex 62.7 0 7
      vertex 62.4898 -2 31.8
      vertex 62.7 0 31.8
    endloop
  endfacet
  facet normal -0.994522 0.104528 0
    outer loop
      vertex 61.3299 -13.0361 59.8
      vertex 62.4898 -2 31.8
      vertex 62.7 0 7
    endloop
  endfacet
  facet normal -0.994522 0.104528 0
    outer loop
      vertex 61.3299 -13.0361 59.8
      vertex 62.7 0 7
      vertex 61.3299 -13.0361 7
    endloop
  endfacet
  facet normal -0.965926 0.258819 0
    outer loop
      vertex -51.8545 -49.4456 59.8
      vertex -51.8545 -49.4456 65.3
      vertex -51.3854 -47.6947 59.8
    endloop
  endfacet
  facet normal -0.965926 0.258819 0
    outer loop
      vertex -51.3854 -47.6947 59.8
      vertex -51.8545 -49.4456 65.3
      vertex -51.3854 -47.6947 65.3
    endloop
  endfacet
  facet normal -0.906308 -0.422618 0
    outer loop
      vertex -51.8545 -49.4456 59.8
      vertex -51.0885 -51.0885 59.8
      vertex -51.8545 -49.4456 65.3
    endloop
  endfacet
  facet normal -0.906308 -0.422618 0
    outer loop
      vertex -51.8545 -49.4456 65.3
      vertex -51.0885 -51.0885 59.8
      vertex -51.0885 -51.0885 65.3
    endloop
  endfacet
  facet normal -0.422618 -0.906308 0
    outer loop
      vertex -51.0885 -51.0885 65.3
      vertex -51.0885 -51.0885 59.8
      vertex -49.4456 -51.8545 59.8
    endloop
  endfacet
  facet normal -0.422618 -0.906308 0
    outer loop
      vertex -49.4456 -51.8545 65.3
      vertex -51.0885 -51.0885 65.3
      vertex -49.4456 -51.8545 59.8
    endloop
  endfacet
  facet normal 0.258819 -0.965926 0
    outer loop
      vertex -49.4456 -51.8545 65.3
      vertex -49.4456 -51.8545 59.8
      vertex -47.6947 -51.3854 59.8
    endloop
  endfacet
  facet normal 0.258819 -0.965926 0
    outer loop
      vertex -47.6947 -51.3854 65.3
      vertex -49.4456 -51.8545 65.3
      vertex -47.6947 -51.3854 59.8
    endloop
  endfacet
  facet normal 0.707107 -0.707107 0
    outer loop
      vertex -47.6947 -51.3854 65.3
      vertex -47.6947 -51.3854 59.8
      vertex -46.139 -49.8298 59.8
    endloop
  endfacet
  facet normal 0.707107 -0.707107 0
    outer loop
      vertex -46.139 -49.8298 65.3
      vertex -47.6947 -51.3854 65.3
      vertex -46.139 -49.8298 59.8
    endloop
  endfacet
  facet normal 0.819152 -0.573576 0
    outer loop
      vertex -46.139 -49.8298 65.3
      vertex -46.139 -49.8298 59.8
      vertex -45.0993 -48.3449 59.8
    endloop
  endfacet
  facet normal 0.819152 -0.573576 0
    outer loop
      vertex -45.0993 -48.3449 65.3
      vertex -46.139 -49.8298 65.3
      vertex -45.0993 -48.3449 59.8
    endloop
  endfacet
  facet normal 0.996195 0.087156 0
    outer loop
      vertex -45.0993 -48.3449 59.8
      vertex -45.2573 -46.5391 59.8
      vertex -45.2573 -46.5391 65.3
    endloop
  endfacet
  facet normal 0.996195 0.087156 0
    outer loop
      vertex -45.0993 -48.3449 65.3
      vertex -45.0993 -48.3449 59.8
      vertex -45.2573 -46.5391 65.3
    endloop
  endfacet
  facet normal 0.707107 0.707107 0
    outer loop
      vertex -45.2573 -46.5391 59.8
      vertex -46.5391 -45.2573 59.8
      vertex -46.5391 -45.2573 65.3
    endloop
  endfacet
  facet normal 0.707107 0.707107 0
    outer loop
      vertex -45.2573 -46.5391 65.3
      vertex -45.2573 -46.5391 59.8
      vertex -46.5391 -45.2573 65.3
    endloop
  endfacet
  facet normal 0.087156 0.996195 0
    outer loop
      vertex -48.3449 -45.0993 59.8
      vertex -48.3449 -45.0993 65.3
      vertex -46.5391 -45.2573 59.8
    endloop
  endfacet
  facet normal 0.087156 0.996195 0
    outer loop
      vertex -46.5391 -45.2573 59.8
      vertex -48.3449 -45.0993 65.3
      vertex -46.5391 -45.2573 65.3
    endloop
  endfacet
  facet normal -0.573576 0.819152 0
    outer loop
      vertex -49.8298 -46.139 59.8
      vertex -49.8298 -46.139 65.3
      vertex -48.3449 -45.0993 59.8
    endloop
  endfacet
  facet normal -0.573576 0.819152 0
    outer loop
      vertex -48.3449 -45.0993 59.8
      vertex -49.8298 -46.139 65.3
      vertex -48.3449 -45.0993 65.3
    endloop
  endfacet
  facet normal -0.707107 0.707107 0
    outer loop
      vertex -51.3854 -47.6947 59.8
      vertex -51.3854 -47.6947 65.3
      vertex -49.8298 -46.139 59.8
    endloop
  endfacet
  facet normal -0.707107 0.707107 0
    outer loop
      vertex -49.8298 -46.139 59.8
      vertex -51.3854 -47.6947 65.3
      vertex -49.8298 -46.139 65.3
    endloop
  endfacet
  facet normal -0.965926 -0.258819 0
    outer loop
      vertex -51.8545 49.4456 59.8
      vertex -51.3854 47.6947 59.8
      vertex -51.8545 49.4456 65.3
    endloop
  endfacet
  facet normal -0.965926 -0.258819 0
    outer loop
      vertex -51.8545 49.4456 65.3
      vertex -51.3854 47.6947 59.8
      vertex -51.3854 47.6947 65.3
    endloop
  endfacet
  facet normal -0.707107 -0.707107 0
    outer loop
      vertex -51.3854 47.6947 59.8
      vertex -49.8298 46.139 59.8
      vertex -51.3854 47.6947 65.3
    endloop
  endfacet
  facet normal -0.707107 -0.707107 0
    outer loop
      vertex -51.3854 47.6947 65.3
      vertex -49.8298 46.139 59.8
      vertex -49.8298 46.139 65.3
    endloop
  endfacet
  facet normal -0.573576 -0.819152 0
    outer loop
      vertex -49.8298 46.139 65.3
      vertex -49.8298 46.139 59.8
      vertex -48.3449 45.0993 59.8
    endloop
  endfacet
  facet normal -0.573576 -0.819152 0
    outer loop
      vertex -48.3449 45.0993 65.3
      vertex -49.8298 46.139 65.3
      vertex -48.3449 45.0993 59.8
    endloop
  endfacet
  facet normal 0.087156 -0.996195 0
    outer loop
      vertex -48.3449 45.0993 65.3
      vertex -48.3449 45.0993 59.8
      vertex -46.5391 45.2573 59.8
    endloop
  endfacet
  facet normal 0.087156 -0.996195 0
    outer loop
      vertex -46.5391 45.2573 65.3
      vertex -48.3449 45.0993 65.3
      vertex -46.5391 45.2573 59.8
    endloop
  endfacet
  facet normal 0.707107 -0.707107 0
    outer loop
      vertex -46.5391 45.2573 65.3
      vertex -46.5391 45.2573 59.8
      vertex -45.2573 46.5391 59.8
    endloop
  endfacet
  facet normal 0.707107 -0.707107 0
    outer loop
      vertex -45.2573 46.5391 65.3
      vertex -46.5391 45.2573 65.3
      vertex -45.2573 46.5391 59.8
    endloop
  endfacet
  facet normal 0.996195 -0.087156 0
    outer loop
      vertex -45.2573 46.5391 65.3
      vertex -45.2573 46.5391 59.8
      vertex -45.0993 48.3449 59.8
    endloop
  endfacet
  facet normal 0.996195 -0.087156 0
    outer loop
      vertex -45.0993 48.3449 65.3
      vertex -45.2573 46.5391 65.3
      vertex -45.0993 48.3449 59.8
    endloop
  endfacet
  facet normal 0.819152 0.573576 0
    outer loop
      vertex -45.0993 48.3449 59.8
      vertex -46.139 49.8298 59.8
      vertex -46.139 49.8298 65.3
    endloop
  endfacet
  facet normal 0.819152 0.573576 0
    outer loop
      vertex -45.0993 48.3449 65.3
      vertex -45.0993 48.3449 59.8
      vertex -46.139 49.8298 65.3
    endloop
  endfacet
  facet normal 0.707107 0.707107 0
    outer loop
      vertex -46.139 49.8298 59.8
      vertex -47.6947 51.3854 59.8
      vertex -47.6947 51.3854 65.3
    endloop
  endfacet
  facet normal 0.707107 0.707107 0
    outer loop
      vertex -46.139 49.8298 65.3
      vertex -46.139 49.8298 59.8
      vertex -47.6947 51.3854 65.3
    endloop
  endfacet
  facet normal 0.258819 0.965926 0
    outer loop
      vertex -49.4456 51.8545 59.8
      vertex -49.4456 51.8545 65.3
      vertex -47.6947 51.3854 59.8
    endloop
  endfacet
  facet normal 0.258819 0.965926 0
    outer loop
      vertex -47.6947 51.3854 59.8
      vertex -49.4456 51.8545 65.3
      vertex -47.6947 51.3854 65.3
    endloop
  endfacet
  facet normal -0.422618 0.906308 0
    outer loop
      vertex -51.0885 51.0885 59.8
      vertex -51.0885 51.0885 65.3
      vertex -49.4456 51.8545 59.8
    endloop
  endfacet
  facet normal -0.422618 0.906308 0
    outer loop
      vertex -49.4456 51.8545 59.8
      vertex -51.0885 51.0885 65.3
      vertex -49.4456 51.8545 65.3
    endloop
  endfacet
  facet normal -0.906308 0.422618 0
    outer loop
      vertex -51.8545 49.4456 59.8
      vertex -51.8545 49.4456 65.3
      vertex -51.0885 51.0885 59.8
    endloop
  endfacet
  facet normal -0.906308 0.422618 0
    outer loop
      vertex -51.0885 51.0885 59.8
      vertex -51.8545 49.4456 65.3
      vertex -51.0885 51.0885 65.3
    endloop
  endfacet
  facet normal -0.996195 0.087156 0
    outer loop
      vertex 45.0993 -48.3449 59.8
      vertex 45.0993 -48.3449 65.3
      vertex 45.2573 -46.5391 59.8
    endloop
  endfacet
  facet normal -0.996195 0.087156 0
    outer loop
      vertex 45.2573 -46.5391 59.8
      vertex 45.0993 -48.3449 65.3
      vertex 45.2573 -46.5391 65.3
    endloop
  endfacet
  facet normal -0.819152 -0.573576 0
    outer loop
      vertex 45.0993 -48.3449 59.8
      vertex 46.139 -49.8298 59.8
      vertex 45.0993 -48.3449 65.3
    endloop
  endfacet
  facet normal -0.819152 -0.573576 0
    outer loop
      vertex 45.0993 -48.3449 65.3
      vertex 46.139 -49.8298 59.8
      vertex 46.139 -49.8298 65.3
    endloop
  endfacet
  facet normal -0.707107 -0.707107 0
    outer loop
      vertex 46.139 -49.8298 59.8
      vertex 47.6947 -51.3854 59.8
      vertex 46.139 -49.8298 65.3
    endloop
  endfacet
  facet normal -0.707107 -0.707107 0
    outer loop
      vertex 46.139 -49.8298 65.3
      vertex 47.6947 -51.3854 59.8
      vertex 47.6947 -51.3854 65.3
    endloop
  endfacet
  facet normal -0.258819 -0.965926 0
    outer loop
      vertex 47.6947 -51.3854 65.3
      vertex 47.6947 -51.3854 59.8
      vertex 49.4456 -51.8545 59.8
    endloop
  endfacet
  facet normal -0.258819 -0.965926 0
    outer loop
      vertex 49.4456 -51.8545 65.3
      vertex 47.6947 -51.3854 65.3
      vertex 49.4456 -51.8545 59.8
    endloop
  endfacet
  facet normal 0.422618 -0.906308 0
    outer loop
      vertex 49.4456 -51.8545 65.3
      vertex 49.4456 -51.8545 59.8
      vertex 51.0885 -51.0885 59.8
    endloop
  endfacet
  facet normal 0.422618 -0.906308 0
    outer loop
      vertex 51.0885 -51.0885 65.3
      vertex 49.4456 -51.8545 65.3
      vertex 51.0885 -51.0885 59.8
    endloop
  endfacet
  facet normal 0.906308 -0.422618 0
    outer loop
      vertex 51.0885 -51.0885 65.3
      vertex 51.0885 -51.0885 59.8
      vertex 51.8545 -49.4456 59.8
    endloop
  endfacet
  facet normal 0.906308 -0.422618 0
    outer loop
      vertex 51.8545 -49.4456 65.3
      vertex 51.0885 -51.0885 65.3
      vertex 51.8545 -49.4456 59.8
    endloop
  endfacet
  facet normal 0.965926 0.258819 0
    outer loop
      vertex 51.8545 -49.4456 59.8
      vertex 51.3854 -47.6947 59.8
      vertex 51.3854 -47.6947 65.3
    endloop
  endfacet
  facet normal 0.965926 0.258819 0
    outer loop
      vertex 51.8545 -49.4456 65.3
      vertex 51.8545 -49.4456 59.8
      vertex 51.3854 -47.6947 65.3
    endloop
  endfacet
  facet normal 0.707107 0.707107 0
    outer loop
      vertex 51.3854 -47.6947 59.8
      vertex 49.8298 -46.139 59.8
      vertex 49.8298 -46.139 65.3
    endloop
  endfacet
  facet normal 0.707107 0.707107 0
    outer loop
      vertex 51.3854 -47.6947 65.3
      vertex 51.3854 -47.6947 59.8
      vertex 49.8298 -46.139 65.3
    endloop
  endfacet
  facet normal 0.573576 0.819152 0
    outer loop
      vertex 48.3449 -45.0993 59.8
      vertex 48.3449 -45.0993 65.3
      vertex 49.8298 -46.139 59.8
    endloop
  endfacet
  facet normal 0.573576 0.819152 0
    outer loop
      vertex 49.8298 -46.139 59.8
      vertex 48.3449 -45.0993 65.3
      vertex 49.8298 -46.139 65.3
    endloop
  endfacet
  facet normal -0.087156 0.996195 0
    outer loop
      vertex 46.5391 -45.2573 59.8
      vertex 46.5391 -45.2573 65.3
      vertex 48.3449 -45.0993 59.8
    endloop
  endfacet
  facet normal -0.087156 0.996195 0
    outer loop
      vertex 48.3449 -45.0993 59.8
      vertex 46.5391 -45.2573 65.3
      vertex 48.3449 -45.0993 65.3
    endloop
  endfacet
  facet normal -0.707107 0.707107 0
    outer loop
      vertex 45.2573 -46.5391 59.8
      vertex 45.2573 -46.5391 65.3
      vertex 46.5391 -45.2573 59.8
    endloop
  endfacet
  facet normal -0.707107 0.707107 0
    outer loop
      vertex 46.5391 -45.2573 59.8
      vertex 45.2573 -46.5391 65.3
      vertex 46.5391 -45.2573 65.3
    endloop
  endfacet
  facet normal -0.996195 -0.087156 0
    outer loop
      vertex 45.0993 48.3449 59.8
      vertex 45.2573 46.5391 59.8
      vertex 45.0993 48.3449 65.3
    endloop
  endfacet
  facet normal -0.996195 -0.087156 0
    outer loop
      vertex 45.0993 48.3449 65.3
      vertex 45.2573 46.5391 59.8
      vertex 45.2573 46.5391 65.3
    endloop
  endfacet
  facet normal -0.707107 -0.707107 0
    outer loop
      vertex 45.2573 46.5391 65.3
      vertex 45.2573 46.5391 59.8
      vertex 46.5391 45.2573 59.8
    endloop
  endfacet
  facet normal -0.707107 -0.707107 0
    outer loop
      vertex 46.5391 45.2573 65.3
      vertex 45.2573 46.5391 65.3
      vertex 46.5391 45.2573 59.8
    endloop
  endfacet
  facet normal -0.087156 -0.996195 0
    outer loop
      vertex 46.5391 45.2573 65.3
      vertex 46.5391 45.2573 59.8
      vertex 48.3449 45.0993 59.8
    endloop
  endfacet
  facet normal -0.087156 -0.996195 0
    outer loop
      vertex 48.3449 45.0993 65.3
      vertex 46.5391 45.2573 65.3
      vertex 48.3449 45.0993 59.8
    endloop
  endfacet
  facet normal 0.573576 -0.819152 0
    outer loop
      vertex 48.3449 45.0993 65.3
      vertex 48.3449 45.0993 59.8
      vertex 49.8298 46.139 59.8
    endloop
  endfacet
  facet normal 0.573576 -0.819152 0
    outer loop
      vertex 49.8298 46.139 65.3
      vertex 48.3449 45.0993 65.3
      vertex 49.8298 46.139 59.8
    endloop
  endfacet
  facet normal 0.707107 -0.707107 0
    outer loop
      vertex 49.8298 46.139 65.3
      vertex 49.8298 46.139 59.8
      vertex 51.3854 47.6947 59.8
    endloop
  endfacet
  facet normal 0.707107 -0.707107 0
    outer loop
      vertex 51.3854 47.6947 65.3
      vertex 49.8298 46.139 65.3
      vertex 51.3854 47.6947 59.8
    endloop
  endfacet
  facet normal 0.965926 -0.258819 0
    outer loop
      vertex 51.3854 47.6947 65.3
      vertex 51.3854 47.6947 59.8
      vertex 51.8545 49.4456 59.8
    endloop
  endfacet
  facet normal 0.965926 -0.258819 0
    outer loop
      vertex 51.8545 49.4456 65.3
      vertex 51.3854 47.6947 65.3
      vertex 51.8545 49.4456 59.8
    endloop
  endfacet
  facet normal 0.906308 0.422618 0
    outer loop
      vertex 51.8545 49.4456 59.8
      vertex 51.0885 51.0885 59.8
      vertex 51.0885 51.0885 65.3
    endloop
  endfacet
  facet normal 0.906308 0.422618 0
    outer loop
      vertex 51.8545 49.4456 65.3
      vertex 51.8545 49.4456 59.8
      vertex 51.0885 51.0885 65.3
    endloop
  endfacet
  facet normal 0.422618 0.906308 0
    outer loop
      vertex 49.4456 51.8545 59.8
      vertex 49.4456 51.8545 65.3
      vertex 51.0885 51.0885 59.8
    endloop
  endfacet
  facet normal 0.422618 0.906308 0
    outer loop
      vertex 51.0885 51.0885 59.8
      vertex 49.4456 51.8545 65.3
      vertex 51.0885 51.0885 65.3
    endloop
  endfacet
  facet normal -0.258819 0.965926 0
    outer loop
      vertex 47.6947 51.3854 59.8
      vertex 47.6947 51.3854 65.3
      vertex 49.4456 51.8545 59.8
    endloop
  endfacet
  facet normal -0.258819 0.965926 0
    outer loop
      vertex 49.4456 51.8545 59.8
      vertex 47.6947 51.3854 65.3
      vertex 49.4456 51.8545 65.3
    endloop
  endfacet
  facet normal -0.707107 0.707107 0
    outer loop
      vertex 46.139 49.8298 59.8
      vertex 46.139 49.8298 65.3
      vertex 47.6947 51.3854 59.8
    endloop
  endfacet
  facet normal -0.707107 0.707107 0
    outer loop
      vertex 47.6947 51.3854 59.8
      vertex 46.139 49.8298 65.3
      vertex 47.6947 51.3854 65.3
    endloop
  endfacet
  facet normal -0.819152 0.573576 0
    outer loop
      vertex 45.0993 48.3449 59.8
      vertex 45.0993 48.3449 65.3
      vertex 46.139 49.8298 59.8
    endloop
  endfacet
  facet normal -0.819152 0.573576 0
    outer loop
      vertex 46.139 49.8298 59.8
      vertex 45.0993 48.3449 65.3
      vertex 46.139 49.8298 65.3
    endloop
  endfacet
  facet normal 0 0 1
    outer loop
      vertex -61.3299 -13.0361 7
      vertex -57.2793 -25.5024 7
      vertex -50.7254 -36.8541 7
    endloop
  endfacet
  facet normal 0 0 1
    outer loop
      vertex -31.35 -54.2998 7
      vertex -61.3299 -13.0361 7
      vertex -41.9545 -46.5952 7
    endloop
  endfacet
  facet normal 0 0 1
    outer loop
      vertex -41.9545 -46.5952 7
      vertex -61.3299 -13.0361 7
      vertex -50.7254 -36.8541 7
    endloop
  endfacet
  facet normal 0 0 1
    outer loop
      vertex -19.3754 -59.6312 7
      vertex -61.3299 -13.0361 7
      vertex -31.35 -54.2998 7
    endloop
  endfacet
  facet normal 0 0 1
    outer loop
      vertex -6.55394 -62.3565 7
      vertex -61.3299 -13.0361 7
      vertex -19.3754 -59.6312 7
    endloop
  endfacet
  facet normal 0 0 1
    outer loop
      vertex 6.55394 -62.3565 7
      vertex -61.3299 -13.0361 7
      vertex -6.55394 -62.3565 7
    endloop
  endfacet
  facet normal 0 0 1
    outer loop
      vertex 19.3754 -59.6312 7
      vertex -61.3299 -13.0361 7
      vertex 6.55394 -62.3565 7
    endloop
  endfacet
  facet normal 0 0 1
    outer loop
      vertex 31.35 -54.2998 7
      vertex -61.3299 -13.0361 7
      vertex 19.3754 -59.6312 7
    endloop
  endfacet
  facet normal 0 0 1
    outer loop
      vertex 41.9545 -46.5952 7
      vertex -61.3299 -13.0361 7
      vertex 31.35 -54.2998 7
    endloop
  endfacet
  facet normal 0 0 1
    outer loop
      vertex 50.7254 -36.8541 7
      vertex -61.3299 -13.0361 7
      vertex 41.9545 -46.5952 7
    endloop
  endfacet
  facet normal 0 0 1
    outer loop
      vertex 57.2793 -25.5024 7
      vertex -61.3299 -13.0361 7
      vertex 50.7254 -36.8541 7
    endloop
  endfacet
  facet normal 0 0 1
    outer loop
      vertex 61.3299 -13.0361 7
      vertex -61.3299 -13.0361 7
      vertex 57.2793 -25.5024 7
    endloop
  endfacet
  facet normal 0 0 1
    outer loop
      vertex 62.7 0 7
      vertex -61.3299 -13.0361 7
      vertex 61.3299 -13.0361 7
    endloop
  endfacet
  facet normal 0 0 1
    outer loop
      vertex 61.3299 13.0361 7
      vertex -61.3299 -13.0361 7
      vertex 62.7 0 7
    endloop
  endfacet
  facet normal 0 0 1
    outer loop
      vertex 57.2793 25.5024 7
      vertex -61.3299 -13.0361 7
      vertex 61.3299 13.0361 7
    endloop
  endfacet
  facet normal 0 0 1
    outer loop
      vertex 50.7254 36.8541 7
      vertex -61.3299 -13.0361 7
      vertex 57.2793 25.5024 7
    endloop
  endfacet
  facet normal 0 0 1
    outer loop
      vertex 41.9545 46.5952 7
      vertex -61.3299 -13.0361 7
      vertex 50.7254 36.8541 7
    endloop
  endfacet
  facet normal 0 0 1
    outer loop
      vertex 31.35 54.2998 7
      vertex -61.3299 -13.0361 7
      vertex 41.9545 46.5952 7
    endloop
  endfacet
  facet normal 0 0 1
    outer loop
      vertex 19.3754 59.6312 7
      vertex -61.3299 -13.0361 7
      vertex 31.35 54.2998 7
    endloop
  endfacet
  facet normal 0 0 1
    outer loop
      vertex 6.55394 62.3565 7
      vertex -61.3299 -13.0361 7
      vertex 19.3754 59.6312 7
    endloop
  endfacet
  facet normal 0 0 1
    outer loop
      vertex -6.55394 62.3565 7
      vertex -61.3299 -13.0361 7
      vertex 6.55394 62.3565 7
    endloop
  endfacet
  facet normal 0 0 1
    outer loop
      vertex -19.3754 59.6312 7
      vertex -61.3299 -13.0361 7
      vertex -6.55394 62.3565 7
    endloop
  endfacet
  facet normal 0 0 1
    outer loop
      vertex -31.35 54.2998 7
      vertex -61.3299 -13.0361 7
      vertex -19.3754 59.6312 7
    endloop
  endfacet
  facet normal 0 0 1
    outer loop
      vertex -41.9545 46.5952 7
      vertex -61.3299 -13.0361 7
      vertex -31.35 54.2998 7
    endloop
  endfacet
  facet normal 0 0 1
    outer loop
      vertex -50.7254 36.8541 7
      vertex -61.3299 -13.0361 7
      vertex -41.9545 46.5952 7
    endloop
  endfacet
  facet normal 0 0 1
    outer loop
      vertex -57.2793 25.5024 7
      vertex -61.3299 -13.0361 7
      vertex -50.7254 36.8541 7
    endloop
  endfacet
  facet normal 0 0 1
    outer loop
      vertex -61.3299 13.0361 7
      vertex -61.3299 -13.0361 7
      vertex -57.2793 25.5024 7
    endloop
  endfacet
  facet normal 0 0 1
    outer loop
      vertex -62.7 0 7
      vertex -61.3299 -13.0361 7
      vertex -61.3299 13.0361 7
    endloop
  endfacet
  facet normal 0 0 1
    outer loop
      vertex -51.3854 -47.6947 65.3
      vertex -51.8545 -49.4456 65.3
      vertex -51.0885 -51.0885 65.3
    endloop
  endfacet
  facet normal 0 0 1
    outer loop
      vertex -47.6947 -51.3854 65.3
      vertex -51.3854 -47.6947 65.3
      vertex -49.4456 -51.8545 65.3
    endloop
  endfacet
  facet normal 0 0 1
    outer loop
      vertex -49.4456 -51.8545 65.3
      vertex -51.3854 -47.6947 65.3
      vertex -51.0885 -51.0885 65.3
    endloop
  endfacet
  facet normal 0 0 1
    outer loop
      vertex -46.139 -49.8298 65.3
      vertex -51.3854 -47.6947 65.3
      vertex -47.6947 -51.3854 65.3
    endloop
  endfacet
  facet normal 0 0 1
    outer loop
      vertex -45.0993 -48.3449 65.3
      vertex -51.3854 -47.6947 65.3
      vertex -46.139 -49.8298 65.3
    endloop
  endfacet
  facet normal 0 0 1
    outer loop
      vertex -45.2573 -46.5391 65.3
      vertex -51.3854 -47.6947 65.3
      vertex -45.0993 -48.3449 65.3
    endloop
  endfacet
  facet normal 0 0 1
    outer loop
      vertex -46.5391 -45.2573 65.3
      vertex -51.3854 -47.6947 65.3
      vertex -45.2573 -46.5391 65.3
    endloop
  endfacet
  facet normal 0 0 1
    outer loop
      vertex -48.3449 -45.0993 65.3
      vertex -51.3854 -47.6947 65.3
      vertex -46.5391 -45.2573 65.3
    endloop
  endfacet
  facet normal 0 0 1
    outer loop
      vertex -49.8298 -46.139 65.3
      vertex -51.3854 -47.6947 65.3
      vertex -48.3449 -45.0993 65.3
    endloop
  endfacet
  facet normal 0 0 1
    outer loop
      vertex -51.0885 51.0885 65.3
      vertex -51.8545 49.4456 65.3
      vertex -51.3854 47.6947 65.3
    endloop
  endfacet
  facet normal 0 0 1
    outer loop
      vertex -48.3449 45.0993 65.3
      vertex -51.0885 51.0885 65.3
      vertex -49.8298 46.139 65.3
    endloop
  endfacet
  facet normal 0 0 1
    outer loop
      vertex -49.8298 46.139 65.3
      vertex -51.0885 51.0885 65.3
      vertex -51.3854 47.6947 65.3
    endloop
  endfacet
  facet normal 0 0 1
    outer loop
      vertex -46.5391 45.2573 65.3
      vertex -51.0885 51.0885 65.3
      vertex -48.3449 45.0993 65.3
    endloop
  endfacet
  facet normal 0 0 1
    outer loop
      vertex -45.2573 46.5391 65.3
      vertex -51.0885 51.0885 65.3
      vertex -46.5391 45.2573 65.3
    endloop
  endfacet
  facet normal 0 0 1
    outer loop
      vertex -45.0993 48.3449 65.3
      vertex -51.0885 51.0885 65.3
      vertex -45.2573 46.5391 65.3
    endloop
  endfacet
  facet normal 0 0 1
    outer loop
      vertex -46.139 49.8298 65.3
      vertex -51.0885 51.0885 65.3
      vertex -45.0993 48.3449 65.3
    endloop
  endfacet
  facet normal 0 0 1
    outer loop
      vertex -47.6947 51.3854 65.3
      vertex -51.0885 51.0885 65.3
      vertex -46.139 49.8298 65.3
    endloop
  endfacet
  facet normal 0 0 1
    outer loop
      vertex -49.4456 51.8545 65.3
      vertex -51.0885 51.0885 65.3
      vertex -47.6947 51.3854 65.3
    endloop
  endfacet
  facet normal 0 0 1
    outer loop
      vertex 45.2573 -46.5391 65.3
      vertex 45.0993 -48.3449 65.3
      vertex 46.139 -49.8298 65.3
    endloop
  endfacet
  facet normal 0 0 1
    outer loop
      vertex 49.4456 -51.8545 65.3
      vertex 45.2573 -46.5391 65.3
      vertex 47.6947 -51.3854 65.3
    endloop
  endfacet
  facet normal 0 0 1
    outer loop
      vertex 47.6947 -51.3854 65.3
      vertex 45.2573 -46.5391 65.3
      vertex 46.139 -49.8298 65.3
    endloop
  endfacet
  facet normal 0 0 1
    outer loop
      vertex 51.0885 -51.0885 65.3
      vertex 45.2573 -46.5391 65.3
      vertex 49.4456 -51.8545 65.3
    endloop
  endfacet
  facet normal 0 0 1
    outer loop
      vertex 51.8545 -49.4456 65.3
      vertex 45.2573 -46.5391 65.3
      vertex 51.0885 -51.0885 65.3
    endloop
  endfacet
  facet normal 0 0 1
    outer loop
      vertex 51.3854 -47.6947 65.3
      vertex 45.2573 -46.5391 65.3
      vertex 51.8545 -49.4456 65.3
    endloop
  endfacet
  facet normal 0 0 1
    outer loop
      vertex 49.8298 -46.139 65.3
      vertex 45.2573 -46.5391 65.3
      vertex 51.3854 -47.6947 65.3
    endloop
  endfacet
  facet normal 0 0 1
    outer loop
      vertex 48.3449 -45.0993 65.3
      vertex 45.2573 -46.5391 65.3
      vertex 49.8298 -46.139 65.3
    endloop
  endfacet
  facet normal 0 0 1
    outer loop
      vertex 46.5391 -45.2573 65.3
      vertex 45.2573 -46.5391 65.3
      vertex 48.3449 -45.0993 65.3
    endloop
  endfacet
  facet normal 0 0 1
    outer loop
      vertex 46.139 49.8298 65.3
      vertex 45.0993 48.3449 65.3
      vertex 45.2573 46.5391 65.3
    endloop
  endfacet
  facet normal 0 0 1
    outer loop
      vertex 48.3449 45.0993 65.3
      vertex 46.139 49.8298 65.3
      vertex 46.5391 45.2573 65.3
    endloop
  endfacet
  facet normal 0 0 1
    outer loop
      vertex 46.5391 45.2573 65.3
      vertex 46.139 49.8298 65.3
      vertex 45.2573 46.5391 65.3
    endloop
  endfacet
  facet normal 0 0 1
    outer loop
      vertex 49.8298 46.139 65.3
      vertex 46.139 49.8298 65.3
      vertex 48.3449 45.0993 65.3
    endloop
  endfacet
  facet normal 0 0 1
    outer loop
      vertex 51.3854 47.6947 65.3
      vertex 46.139 49.8298 65.3
      vertex 49.8298 46.139 65.3
    endloop
  endfacet
  facet normal 0 0 1
    outer loop
      vertex 51.8545 49.4456 65.3
      vertex 46.139 49.8298 65.3
      vertex 51.3854 47.6947 65.3
    endloop
  endfacet
  facet normal 0 0 1
    outer loop
      vertex 51.0885 51.0885 65.3
      vertex 46.139 49.8298 65.3
      vertex 51.8545 49.4456 65.3
    endloop
  endfacet
  facet normal 0 0 1
    outer loop
      vertex 49.4456 51.8545 65.3
      vertex 46.139 49.8298 65.3
      vertex 51.0885 51.0885 65.3
    endloop
  endfacet
  facet normal 0 0 1
    outer loop
      vertex 47.6947 51.3854 65.3
      vertex 46.139 49.8298 65.3
      vertex 49.4456 51.8545 65.3
    endloop
  endfacet
endsolid OpenSCAD_Model
